<svg xmlns="http://www.w3.org/2000/svg" xmlns:xlink="http://www.w3.org/1999/xlink" width="41.087" height="32.666" viewBox="0 0 41.087 32.666">
  <defs>
    <pattern id="pattern" preserveAspectRatio="none" width="100%" height="100%" viewBox="0 0 0 0">
      <image/>
    </pattern>
  </defs>
  <g id="Vector_Smart_Object" data-name="Vector Smart Object" transform="translate(-1055.667 -57.413)">
    <g id="Vector_Smart_Object-2" data-name="Vector Smart Object" transform="translate(1055.667 57.413)">
      <g id="Vector_Smart_Object-3" data-name="Vector Smart Object" transform="translate(-22.79 -36.058)">
        <g id="Group_7" data-name="Group 7">
          <path id="Path_28" data-name="Path 28" d="M40.326,67.1a.8.8,0,0,0-.567.237.812.812,0,0,0,0,1.143.8.8,0,0,0,1.135,0,.813.813,0,0,0,0-1.143.8.8,0,0,0-.567-.237Zm0,0" fill="#fff"/>
          <path id="Path_29" data-name="Path 29" d="M56.31,53.53l-.577-2.625a2.368,2.368,0,0,0,.294.019h1.6a.805.805,0,0,0,.8-.808V46.882a.805.805,0,0,0-.8-.808h-1.6a2.38,2.38,0,0,0-1.274.369l-.313-1.424a2.016,2.016,0,0,0,1.733-2v-1.46a2.013,2.013,0,0,0-2-2.019H49.432a2.008,2.008,0,0,0-1.87,1.294h-1.9a2.1,2.1,0,0,0,0,4.2h4.131v1.629a.8.8,0,1,0,1.6,0V45.037h1.4l2.014,9.17L51,61.048a2.354,2.354,0,0,1-2.051,1.207H39.434a6.77,6.77,0,0,0-6.694-5.985,6.645,6.645,0,0,0-4.161,1.447l0,0a6.765,6.765,0,0,0-2.53,4.534H24.4A10.676,10.676,0,0,1,35.02,51.747h4.409a.819.819,0,0,1,.815.821v7.261a.805.805,0,0,0,.8.808H46.6a4.781,4.781,0,0,0,4.189-2.49,4.861,4.861,0,0,0,.6-2.327l0-2.686a.805.805,0,0,0-.8-.809h0a.805.805,0,0,0-.8.807l0,2.687a3.228,3.228,0,0,1-.4,1.546A3.178,3.178,0,0,1,46.6,59.021H41.849V52.569a2.441,2.441,0,0,0-.709-1.723,2.759,2.759,0,0,0-.18-3.876,1.613,1.613,0,0,0,.17-.72V37.675a1.613,1.613,0,0,0-1.6-1.617H31.013a1.613,1.613,0,0,0-1.6,1.617v4.689h-3.4a.808.808,0,0,0,0,1.617h3.4V46.25H23.593a.808.808,0,0,0,0,1.617h5.339a2.758,2.758,0,0,0,.953,3.4A12.343,12.343,0,0,0,22.79,62.452v.611a.805.805,0,0,0,.8.808H28.1a.829.829,0,0,0-.016.162,4.688,4.688,0,0,0,1.141,3.07h-3.22a.808.808,0,0,0,0,1.617h6.641l.093,0a4.677,4.677,0,0,0,4.654-4.689.83.83,0,0,0-.016-.162H48.951a3.955,3.955,0,0,0,3.184-1.619h1.016a4.7,4.7,0,0,0,.791,4.851H43.536a.808.808,0,0,0,0,1.617H57.364l.093,0a4.693,4.693,0,0,0,4.3-6.47h1.313a.805.805,0,0,0,.8-.808A7.9,7.9,0,0,0,56.31,53.53Zm-.283-5.84h.8v1.617h-.8a.808.808,0,0,1,0-1.617ZM36.141,37.675v1.78H34.374v-1.78Zm-5.129,0h1.756v2.589a.806.806,0,0,0,.8.808h3.372a.805.805,0,0,0,.8-.808V37.675h1.778V46.25H31.013Zm.4,12.456a1.132,1.132,0,0,1,0-2.264h7.7a1.132,1.132,0,0,1,0,2.264Zm4.373,13.9a3.064,3.064,0,0,1-3.018,3.071l-.031,0h-.092a3.065,3.065,0,0,1-2.957-3.07.829.829,0,0,0-.016-.162h6.131a.829.829,0,0,0-.016.162Zm-8.126-1.779a5.151,5.151,0,0,1,1.9-3.263l.007-.006a5.061,5.061,0,0,1,3.167-1.1,5.158,5.158,0,0,1,5.076,4.368Zm17.514-19.32a.484.484,0,0,1,.481-.485h1.768v.569a2.042,2.042,0,0,0,.04.4H45.66a.484.484,0,0,1-.481-.485Zm5.414.485H49.432a.4.4,0,0,1-.4-.4v-1.46a.4.4,0,0,1,.4-.4h4.737a.4.4,0,0,1,.4.4v1.46a.4.4,0,0,1-.4.4Zm9.913,20.614a3.064,3.064,0,0,1-3.018,3.071l-.031,0h-.092a3.077,3.077,0,0,1-2.392-4.851h4.969a3.083,3.083,0,0,1,.565,1.781Zm-.181-3.4H53.072l3.06-5.491a6.282,6.282,0,0,1,6.088,5.491Zm0,0" fill="#fff"/>
          <path id="Path_30" data-name="Path 30" d="M50.593,50.709a.808.808,0,0,0,0-1.617h0a.808.808,0,0,0,0,1.617Zm0,0" fill="#fff"/>
        </g>
      </g>
      <rect id="Place_Your_Image_Here" data-name="Place Your Image Here" fill="url(#pattern)"/>
    </g>
    <path id="Color_Overlay" data-name="Color Overlay" d="M1090.241,90.076h-13.828a.809.809,0,0,1,0-1.617h10.407a4.7,4.7,0,0,1-.791-4.85h-1.016a3.958,3.958,0,0,1-3.185,1.619h-11.572a.8.8,0,0,1,.016.162,4.678,4.678,0,0,1-4.655,4.689l-.093,0h-6.64a.809.809,0,0,1,0-1.617h3.219a4.687,4.687,0,0,1-1.14-3.069.8.8,0,0,1,.016-.162h-4.51a.805.805,0,0,1-.8-.808v-.611a12.346,12.346,0,0,1,7.094-11.182,2.758,2.758,0,0,1-.952-3.4h-5.339a.808.808,0,0,1,0-1.616h5.815V65.336h-3.4a.809.809,0,0,1,0-1.617h3.4V59.03a1.613,1.613,0,0,1,1.606-1.617h8.511a1.613,1.613,0,0,1,1.6,1.617v8.575a1.608,1.608,0,0,1-.17.719,2.76,2.76,0,0,1,.18,3.876,2.44,2.44,0,0,1,.709,1.724v6.452h4.752a3.179,3.179,0,0,0,2.785-1.655,3.224,3.224,0,0,0,.4-1.546l0-2.687a.806.806,0,0,1,.8-.807h0a.8.8,0,0,1,.8.809l0,2.687a4.866,4.866,0,0,1-.6,2.326,4.781,4.781,0,0,1-4.189,2.489h-5.554a.805.805,0,0,1-.8-.808v-7.26a.819.819,0,0,0-.815-.822H1067.9a10.675,10.675,0,0,0-10.623,10.507h1.648a6.765,6.765,0,0,1,2.53-4.534l0,0a6.644,6.644,0,0,1,4.161-1.447,6.77,6.77,0,0,1,6.694,5.985h9.517a2.355,2.355,0,0,0,2.051-1.207l3.812-6.841-2.014-9.17h-1.4v1.63a.8.8,0,1,1-1.6,0v-1.63h-4.13a2.1,2.1,0,0,1,0-4.2h1.9a2.007,2.007,0,0,1,1.869-1.293h4.738a2.013,2.013,0,0,1,2,2.019v1.46a2.016,2.016,0,0,1-1.733,2l.313,1.424a2.382,2.382,0,0,1,1.274-.368h1.6a.805.805,0,0,1,.8.808v3.234a.805.805,0,0,1-.8.808h-1.6a2.45,2.45,0,0,1-.294-.018l.577,2.624a7.9,7.9,0,0,1,7.567,7.914.806.806,0,0,1-.8.809h-1.313a4.692,4.692,0,0,1-4.3,6.47Zm-2.956-4.686a3.064,3.064,0,0,0,2.956,3.069h.093l.031,0a3.076,3.076,0,0,0,2.453-4.852h-4.969A3.08,3.08,0,0,0,1087.285,85.389Zm-24.717,0a3.065,3.065,0,0,0,2.957,3.069h.092l.032,0a3.065,3.065,0,0,0,3.019-3.071.869.869,0,0,1,.015-.162h-6.13A.869.869,0,0,1,1062.568,85.389Zm-.117-5.047-.007.005a5.151,5.151,0,0,0-1.9,3.262h10.152a5.158,5.158,0,0,0-5.076-4.368A5.058,5.058,0,0,0,1062.451,80.342Zm23.5,1.649h9.149a6.282,6.282,0,0,0-6.089-5.492ZM1063.17,70.354a1.129,1.129,0,0,0,1.123,1.131h7.7a1.132,1.132,0,0,0,0-2.263h-7.7A1.129,1.129,0,0,0,1063.17,70.354Zm24.931-.5a.807.807,0,0,0,.8.809h.8V69.045h-.8A.806.806,0,0,0,1088.1,69.854Zm-24.211-2.248h8.512V59.03h-1.778v2.588a.805.805,0,0,1-.8.809h-3.372a.806.806,0,0,1-.8-.809V59.03h-1.756Zm18.02-4.692v1.46a.4.4,0,0,0,.4.4h4.738a.4.4,0,0,0,.4-.4v-1.46a.4.4,0,0,0-.4-.4h-4.738A.4.4,0,0,0,1081.91,62.914Zm-3.854,1.377a.484.484,0,0,0,.481.485h1.807a2.045,2.045,0,0,1-.04-.4v-.568h-1.768A.483.483,0,0,0,1078.056,64.291Zm-10.805-3.48h1.768V59.03h-1.768Zm5.386,29.029a.813.813,0,0,1,0-1.143.8.8,0,0,1,1.135,0,.813.813,0,0,1,0,1.143.8.8,0,0,1-1.135,0Zm10.03-18.583a.805.805,0,0,1,.8-.809h0a.809.809,0,1,1-.8.809Z" fill="#3d2514"/>
  </g>
</svg>
