<svg xmlns="http://www.w3.org/2000/svg" width="58.077" height="58.077" viewBox="0 0 58.077 58.077"><g transform="translate(-52.632 -68.966)"><path d="M83.372,80.99a1.7,1.7,0,1,1-1.7-1.7,1.7,1.7,0,0,1,1.7,1.7Zm0,0" fill="#2e1b10"/><path d="M96.984,80.99a1.7,1.7,0,1,1-1.7-1.7,1.7,1.7,0,0,1,1.7,1.7Zm0,0" fill="#2e1b10"/><path d="M90.178,77.587a1.7,1.7,0,1,1-1.7-1.7,1.7,1.7,0,0,1,1.7,1.7Zm0,0" fill="#2e1b10"/><path d="M76.566,77.587a1.7,1.7,0,1,1-1.7-1.7,1.7,1.7,0,0,1,1.7,1.7Zm0,0" fill="#2e1b10"/><path d="M69.76,80.99a1.7,1.7,0,1,1-1.7-1.7,1.7,1.7,0,0,1,1.7,1.7Zm0,0" fill="#2e1b10"/><path d="M110.709,103.109a6.817,6.817,0,0,0-5.218-6.617V92.9a1.7,1.7,0,0,0,1.7-1.7V87.682A18.738,18.738,0,0,0,88.476,68.966H74.864A18.738,18.738,0,0,0,56.148,87.682V91.2a1.7,1.7,0,0,0,1.7,1.7v3.592a6.8,6.8,0,0,0,0,13.234v3.592a1.7,1.7,0,0,0-1.7,1.7v3.516a8.517,8.517,0,0,0,8.507,8.507H98.685a8.517,8.517,0,0,0,8.507-8.507v-3.516a1.7,1.7,0,0,0-1.588-1.7V109.7a6.819,6.819,0,0,0,5.1-6.591ZM96.984,113.318v-3.4H102.2v3.4Zm10.322-10.209a3.407,3.407,0,0,1-3.4,3.4H96.984V99.706H103.9a3.407,3.407,0,0,1,3.4,3.4ZM59.551,87.682A15.331,15.331,0,0,1,74.864,72.369H88.476a15.331,15.331,0,0,1,15.313,15.313V89.5H59.551ZM102.088,92.9v3.4H95.282a1.7,1.7,0,0,0-1.7,1.7v17.015a1.7,1.7,0,0,1-3.4,0V98a1.7,1.7,0,0,0-1.7-1.7H78.267a1.7,1.7,0,0,0-1.7,1.7,1.7,1.7,0,0,1-3.4,0,1.7,1.7,0,0,0-1.7-1.7H61.253V92.9ZM56.035,103.109a3.407,3.407,0,0,1,3.4-3.4H70.051a5.105,5.105,0,0,0,9.626,0h7.1v6.806H59.438a3.407,3.407,0,0,1-3.4-3.4Zm5.218,6.806H86.775v3.4H61.253Zm42.537,8.621a5.11,5.11,0,0,1-5.1,5.1H64.656a5.11,5.11,0,0,1-5.1-5.1v-1.815H87.067a5.1,5.1,0,0,0,9.624,0h7.1Zm0,0" fill="#2e1b10"/></g></svg>